<?xml version="1.0" encoding="UTF-8"?>
<svg version="1.1" xmlns="http://www.w3.org/2000/svg" width="2048" height="2048">
<path d="M0 0 C675.84 0 1351.68 0 2048 0 C2048 675.84 2048 1351.68 2048 2048 C1372.16 2048 696.32 2048 0 2048 C0 1372.16 0 696.32 0 0 Z " fill="#020202" transform="translate(0,0)"/>
<path d="M0 0 C136.49446286 0 136.49446286 0 172.625 35.125 C193.18198078 55.834142 205.27818955 85.83520438 205.37110901 114.87190247 C205.36457013 116.52050544 205.35289905 118.16909578 205.33618164 119.81762695 C205.31235944 122.32730808 205.31567831 124.83593558 205.32226562 127.34570312 C205.30867171 135.43718327 205.14623921 143.14221983 203 151 C202.8337915 151.67844971 202.66758301 152.35689941 202.49633789 153.0559082 C194.67243 184.19619826 177.36924426 209.8137958 149.98339844 226.82177734 C105.73339446 253.10815342 47.25026195 243 0 243 C0 162.81 0 82.62 0 0 Z " fill="#FAFAF9" transform="translate(309,911)"/>
<path d="M0 0 C20.92062076 -1.09939763 40.62208293 4.00362368 56.99169922 17.4921875 C58.98272712 19.31008254 60.88214635 21.22638463 62.78857422 23.1328125 C63.11857422 16.8628125 63.44857422 10.5928125 63.78857422 4.1328125 C74.01857422 4.1328125 84.24857422 4.1328125 94.78857422 4.1328125 C94.78857422 59.9028125 94.78857422 115.6728125 94.78857422 173.1328125 C84.55857422 173.1328125 74.32857422 173.1328125 63.78857422 173.1328125 C63.45857422 167.1928125 63.12857422 161.2528125 62.78857422 155.1328125 C61.59232422 156.2878125 60.39607422 157.4428125 59.16357422 158.6328125 C40.39267743 175.1558725 17.0858447 179.56278677 -7.21142578 178.1328125 C-23.13337298 176.40735869 -37.70555687 168.8855237 -50.21142578 159.1328125 C-50.81986328 158.67648437 -51.42830078 158.22015625 -52.05517578 157.75 C-68.22573978 144.88705136 -79.21290942 122.94198968 -81.96923828 102.55078125 C-83.97395278 74.2584396 -78.62220698 48.71276317 -59.65185547 26.69384766 C-43.46315999 9.14969192 -23.31022395 1.39995163 0 0 Z " fill="#FCFCFB" transform="translate(620.21142578125,980.8671875)"/>
<path d="M0 0 C9.9 0 19.8 0 30 0 C39.01074333 9.35999694 39.01074333 9.35999694 41.125 13.64453125 C43.84550367 18.82932676 47.05195646 23.38919897 50.5625 28.0625 C51.64149528 29.55217708 52.71702682 31.04436918 53.7890625 32.5390625 C54.31918945 33.27543945 54.84931641 34.01181641 55.39550781 34.77050781 C56.46516927 36.25683594 57.53483073 37.74316406 58.60449219 39.22949219 C64.69238778 47.68593075 70.80871222 56.11887042 77 64.5 C85.84884056 76.47925136 94.56059341 88.55610136 103.20117188 100.6862793 C105.46014996 103.85472196 107.73116732 107.01393076 110.015625 110.1640625 C115.72739254 118.04076715 121.38099642 125.95031704 126.9375 133.9375 C132.12645537 141.39202512 137.44738087 148.73455244 142.86181641 156.02661133 C147.45827325 162.22850108 151.93382423 168.50890294 156.35791016 174.8347168 C158.50389219 178.05926087 158.50389219 178.05926087 161 181 C161.33 121.27 161.66 61.54 162 0 C172.89 0 183.78 0 195 0 C195 80.19 195 160.38 195 243 C185.76 243 176.52 243 167 243 C158.05212329 233.56278629 158.05212329 233.56278629 155.88671875 229.30078125 C153.21483245 224.31030846 150.14802541 219.81434722 146.8125 215.25 C145.82560265 213.8494302 144.84118964 212.44710626 143.859375 211.04296875 C140.7041984 206.56317301 137.46663133 202.14657957 134.21630859 197.7355957 C126.26137722 186.9359581 118.44181948 176.03753837 110.66333008 165.11035156 C107.68867503 160.94091375 104.66394171 156.81023745 101.625 152.6875 C97.21092114 146.69562937 92.89980658 140.63702577 88.62158203 134.54760742 C84.95503021 129.33516762 81.23995553 124.15998034 77.5 119 C73.24828663 113.13395234 69.04005947 107.24037594 64.875 101.3125 C59.35339504 93.46222598 53.69821605 85.72424842 48 78 C43.38 71.73 38.76 65.46 34 59 C33.67 119.72 33.34 180.44 33 243 C22.11 243 11.22 243 0 243 C0 162.81 0 82.62 0 0 Z " fill="#F9F9F8" transform="translate(1077,911)"/>
<path d="M0 0 C1.79183716 0.00845947 1.79183716 0.00845947 3.61987305 0.01708984 C27.38540881 0.34346405 47.62248527 8.90438335 64.41650391 25.83886719 C77.91201776 40.08491854 86.92395266 59.72420329 86.9453125 79.515625 C86.94660156 80.6603125 86.94789063 81.805 86.94921875 82.984375 C86.94535156 84.16515625 86.94148438 85.3459375 86.9375 86.5625 C86.94136719 87.75875 86.94523437 88.955 86.94921875 90.1875 C86.94728516 91.89679688 86.94728516 91.89679688 86.9453125 93.640625 C86.94418457 94.6812207 86.94305664 95.72181641 86.94189453 96.79394531 C86.8125 99.3125 86.8125 99.3125 85.8125 101.3125 C39.6125 101.3125 -6.5875 101.3125 -54.1875 101.3125 C-49.96001862 118.22242552 -43.66402782 131.1110866 -28.75 140.75 C-23.38592011 143.8654375 -18.22818514 145.96641731 -12.1875 147.3125 C-11.57334229 147.48305908 -10.95918457 147.65361816 -10.32641602 147.8293457 C6.26919306 151.57808561 23.62560544 146.91766555 37.8125 138.3125 C43.9014703 133.66781376 49.00955418 128.25298562 53.8125 122.3125 C59.18996152 123.26926292 64.0019328 125.18196272 69.0625 127.1875 C70.44695312 127.71537109 70.44695312 127.71537109 71.859375 128.25390625 C72.7359375 128.60066406 73.6125 128.94742187 74.515625 129.3046875 C75.31645508 129.61776855 76.11728516 129.93084961 76.94238281 130.25341797 C78.8125 131.3125 78.8125 131.3125 79.8125 134.3125 C71.03322062 154.1328392 53.52639926 165.31177867 34.28515625 173.37109375 C32.14312013 174.14095031 30.01770217 174.74899008 27.8125 175.3125 C26.83925781 175.58835937 25.86601563 175.86421875 24.86328125 176.1484375 C0.39696791 182.34316027 -24.37820833 177.30567334 -46.12109375 165.19140625 C-50.85251425 162.29228108 -55.04588764 158.99547744 -59.1875 155.3125 C-59.93515625 154.67054688 -60.6828125 154.02859375 -61.453125 153.3671875 C-77.51761996 138.59459248 -86.55856901 116.46088279 -87.57421875 94.93359375 C-88.23401565 69.76417487 -82.00496512 46.17567792 -64.30175781 27.46972656 C-54.60103033 17.47764617 -44.07153654 9.89208407 -31 4.9375 C-30.37158203 4.69894287 -29.74316406 4.46038574 -29.09570312 4.21459961 C-19.48052423 0.77545793 -10.17180129 -0.05010387 0 0 Z " fill="#FCFCFB" transform="translate(1392.1875,980.6875)"/>
<path d="M0 0 C90.32 0 90.32 0 117.41015625 26.34375 C127.1000002 36.58207569 132.68460702 47.75274714 137 61 C137.52980469 62.16015625 137.52980469 62.16015625 138.0703125 63.34375 C145.27715829 83.93473797 141.02080577 113.12595539 131.81640625 132.375 C127.32158502 141.44461311 122.11231429 148.76026639 115 156 C113.87464844 157.16208984 113.87464844 157.16208984 112.7265625 158.34765625 C104.36028738 166.4498795 93.23811256 172.81940211 82 176 C79.96875 175.83203125 79.96875 175.83203125 78 175 C76.48046875 173.0390625 76.48046875 173.0390625 75.1875 170.625 C74.74792969 169.83351563 74.30835938 169.04203125 73.85546875 168.2265625 C73 166 73 166 74 163 C75.75 162.296875 75.75 162.296875 78 161.75 C85.95469975 159.237325 91.1242513 155.19821035 95.06787109 147.7512207 C99.61012887 138.60841006 100.23950054 131.25037212 100.25390625 121.21679688 C100.44023155 114.62186197 100.44023155 114.62186197 103.359375 111.37890625 C106 110 106 110 109 110 C109 109.34 109 108.68 109 108 C107.89785156 107.84724609 107.89785156 107.84724609 106.7734375 107.69140625 C103.72754843 106.93207897 102.10296416 105.82951956 99.625 103.9375 C96.61698257 101.87571322 95.03276025 101.00621315 91.375 100.3125 C86.90477732 101.22310092 84.16544059 102.70704166 81 106 C80.14355213 107.41175761 79.33520359 108.85322221 78.5625 110.3125 C75.48364909 115.84100886 71.39726984 120.13346397 67 124.625 C66.31107666 125.34856689 65.62215332 126.07213379 64.91235352 126.81762695 C59.9364608 131.78517186 59.9364608 131.78517186 55.91796875 132.70703125 C52.22926327 131.81324853 49.40261727 130.18313471 46.3125 128.0625 C45.70672119 127.6600708 45.10094238 127.2576416 44.47680664 126.84301758 C38.6773443 122.92265109 33.33071222 118.53327234 28 114 C24.33303513 110.91512441 24.33303513 110.91512441 20 109 C26.49383709 119.12947123 34.53949991 127.86967827 43.3125 136.0625 C46 139 46 139 46.015625 140.91015625 C42.00851676 149.15555205 29.14407926 153.45986056 21.03100586 156.32373047 C19.35854527 156.89593668 17.67992338 157.45008926 16 158 C16 158.33 16 158.66 16 159 C21.66805962 159.3148922 25.89005604 158.62907014 31.21484375 156.65625 C40.79845657 154.39811963 49.72078154 157.10237725 58.18798828 161.71044922 C62.88430402 165.05266691 64.82786652 170.51026092 66 176 C65.67 176.99 65.34 177.98 65 179 C43.55 179 22.1 179 0 179 C0 119.93 0 60.86 0 0 Z " fill="#030302" transform="translate(342,943)"/>
<path d="M0 0 C10.89 0 21.78 0 33 0 C36.80957474 8.25407861 40.48695884 16.43137614 43.86453247 24.8538208 C45.24809979 28.30366114 46.64275503 31.74903054 48.03515625 35.1953125 C48.4938636 36.33200882 48.4938636 36.33200882 48.96183777 37.4916687 C51.5812091 43.97799549 54.22343658 50.45486159 56.87109375 56.9296875 C57.29439972 57.96495071 57.71770569 59.00021393 58.15383911 60.06684875 C59.02065711 62.1865983 59.88750917 64.30633391 60.75439453 66.42605591 C67.42885578 82.74830888 74.08240473 99.07733518 80.57446289 115.47314453 C81.00621826 116.56095215 81.43797363 117.64875977 81.8828125 118.76953125 C82.24777832 119.69354736 82.61274414 120.61756348 82.98876953 121.56958008 C83.90431792 123.77003499 84.90320043 125.88509638 86 128 C93.01456428 111.21825074 99.86227 94.38693 106.47746277 77.44311523 C110.0830097 68.21686288 113.72804012 59.00613983 117.37155151 49.79483032 C118.1915527 47.72113949 119.01101233 45.64723442 119.8298645 43.5730896 C124.17873759 32.55747884 128.55996808 21.55568618 133.0234375 10.5859375 C133.40811188 9.63619049 133.79278625 8.68644348 134.18911743 7.70791626 C134.54355927 6.84056854 134.8980011 5.97322083 135.26318359 5.07958984 C135.57532806 4.3135141 135.88747253 3.54743835 136.20907593 2.75814819 C137 1 137 1 138 0 C140.3756852 -0.0883967 142.72208674 -0.11530305 145.09765625 -0.09765625 C146.16094398 -0.09553383 146.16094398 -0.09553383 147.24571228 -0.09336853 C149.51801712 -0.08775443 151.79022475 -0.07519963 154.0625 -0.0625 C155.59960796 -0.05748681 157.13671745 -0.05292359 158.67382812 -0.04882812 C162.44925642 -0.03778042 166.22461171 -0.02050641 170 0 C169.37821563 3.54405205 168.44540081 6.72027703 167.12890625 10.06640625 C166.72937744 11.08500732 166.32984863 12.1036084 165.91821289 13.15307617 C165.24713501 14.84074097 165.24713501 14.84074097 164.5625 16.5625 C163.84211548 18.38454956 163.84211548 18.38454956 163.10717773 20.2434082 C155.20545362 40.16980047 146.99196066 59.97283792 138.84954834 79.80163574 C136.14556682 86.38690188 133.44580717 92.97388327 130.75 99.5625 C130.35586914 100.52522827 129.96173828 101.48795654 129.55566406 102.4798584 C123.71109748 116.76794592 117.95587554 131.09044721 112.23828125 145.4296875 C111.55764247 147.13584486 110.87698856 148.84199617 110.19631958 150.54814148 C107.14782652 158.19108358 104.10206767 165.83507636 101.06703663 173.48337555 C99.7978589 176.6793759 98.52517991 179.87397458 97.25176048 183.0682869 C96.65815355 184.55972101 96.06610355 186.05177592 95.47576332 187.54450607 C88.83296502 204.33848043 81.98138139 221.43140209 64.75 229.75 C62.8471665 230.5344334 60.93002557 231.28507873 59 232 C58.14277344 232.32097656 57.28554688 232.64195312 56.40234375 232.97265625 C49.62045962 235.07064918 42.91889789 235.30621308 35.875 235.375 C34.95678467 235.38893799 34.03856934 235.40287598 33.0925293 235.41723633 C18.31530619 235.31530619 18.31530619 235.31530619 14 231 C14.54768957 225.19140497 16.03721964 219.68082963 17.5625 214.0625 C17.79646484 213.18787109 18.03042969 212.31324219 18.27148438 211.41210938 C18.84405249 209.27374275 19.42029595 207.13644097 20 205 C20.70495605 205.02618408 21.40991211 205.05236816 22.13623047 205.0793457 C25.38225312 205.18435626 28.62791702 205.24865286 31.875 205.3125 C32.98359375 205.35439453 34.0921875 205.39628906 35.234375 205.43945312 C43.58122639 205.56220094 50.59163149 204.20178189 56.81298828 198.27197266 C61.98160512 192.34817225 64.30150969 184.25828868 67 177 C67.61101562 175.72189453 67.61101562 175.72189453 68.234375 174.41796875 C69.99947562 168.8434928 67.12622923 163.38714588 64.96484375 158.25390625 C64.49920265 157.12642471 64.49920265 157.12642471 64.02415466 155.97616577 C63.0010663 153.50249659 61.9692887 151.0325513 60.9375 148.5625 C60.21956635 146.8310793 59.50229137 145.09938535 58.78564453 143.36743164 C57.28809956 139.74946407 55.78768364 136.13270544 54.28564453 132.51660156 C52.03763539 127.09834768 49.81054785 121.67168098 47.58984375 116.2421875 C47.23407761 115.37264938 46.87831146 114.50311127 46.51176453 113.60722351 C45.13360399 110.23826151 43.75579625 106.8691556 42.37863159 103.49978638 C38.82856973 94.81850336 35.23207582 86.16327049 31.51904297 77.55004883 C28.90403575 71.43869879 26.36772778 65.29464122 23.82092285 59.15463257 C17.7716625 44.57618054 11.63374495 30.03948 5.390625 15.54296875 C4.97490234 14.57536621 4.55917969 13.60776367 4.13085938 12.61083984 C3.43420703 11.0024633 2.72899592 9.39772417 2.00976562 7.79931641 C0.7526195 4.98832008 0 3.12399058 0 0 Z " fill="#FCFCFA" transform="translate(881,985)"/>
<path d="M0 0 C17.69023051 -0.58734943 33.65633252 2.22405603 47.89599609 13.47265625 C55.4874355 20.73254182 60.7074059 29.07988107 63.86474609 39.078125 C63.86474609 40.068125 63.86474609 41.058125 63.86474609 42.078125 C41.92008206 50.078125 41.92008206 50.078125 36.86474609 50.078125 C35.57568359 48.390625 35.57568359 48.390625 34.23974609 46.078125 C29.20146265 38.2174125 22.96299062 32.53325371 13.95458984 29.703125 C3.29677202 27.5473085 -6.84284852 28.25204461 -16.00634766 34.31640625 C-19.89375613 37.32751641 -21.84680574 39.95271743 -22.50634766 44.8125 C-22.6331967 50.57293901 -22.64887812 55.54695984 -19.08837891 60.28125 C-8.31367887 70.19397403 8.87113525 72.94623605 22.50683594 76.83081055 C33.62095265 80.06684855 45.18221771 84.19234628 53.86474609 92.078125 C54.46416016 92.57570313 55.06357422 93.07328125 55.68115234 93.5859375 C63.29992082 100.39840003 68.28298336 110.99698169 69.11474609 121.12109375 C69.65836136 136.42726119 64.99194055 149.34081606 54.80224609 160.765625 C39.15754814 175.39078084 17.96847353 178.81421445 -2.58447266 178.38671875 C-19.79709142 177.67384006 -36.75641207 171.34604531 -49.13525391 159.078125 C-56.40372221 150.39871873 -60.92033624 141.10472595 -63.13525391 130.078125 C-59.41058143 128.73199803 -55.67985516 127.40350229 -51.94775391 126.078125 C-50.89265625 125.6965625 -49.83755859 125.315 -48.75048828 124.921875 C-47.72890625 124.5609375 -46.70732422 124.2 -45.65478516 123.828125 C-44.24869995 123.32539062 -44.24869995 123.32539062 -42.81420898 122.8125 C-40.12188418 122.07445999 -37.91123821 121.93723444 -35.13525391 122.078125 C-34.74853516 122.88636719 -34.36181641 123.69460938 -33.96337891 124.52734375 C-33.44259766 125.59597656 -32.92181641 126.66460938 -32.38525391 127.765625 C-31.87478516 128.82136719 -31.36431641 129.87710937 -30.83837891 130.96484375 C-26.07102915 139.67947164 -19.26789949 144.23059892 -10.01025391 147.453125 C3.11369463 151.14567793 15.61778389 149.73404535 27.59130859 143.5078125 C31.77219252 140.87859684 34.28592865 137.81457734 35.86474609 133.078125 C36.33220311 127.33836592 36.69320137 121.97666834 34.36474609 116.640625 C24.74212356 106.7774369 13.50569466 104.17165434 0.49072266 101.00146484 C-16.96717165 96.70720165 -36.54173427 91.12155249 -47.51025391 75.765625 C-54.99047742 63.22775037 -56.50074051 48.58208864 -52.93994141 34.36328125 C-48.64324809 22.16150653 -40.13419104 12.57841859 -28.83056641 6.32421875 C-19.42599569 1.97630852 -10.24659343 0.37490394 0 0 Z " fill="#FBFBFA" transform="translate(1562.13525390625,980.921875)"/>
<path d="M0 0 C1.45212891 -0.01740234 1.45212891 -0.01740234 2.93359375 -0.03515625 C17.54134578 0.02366691 30.74477092 5.94299725 41.25 16.02734375 C52.09906758 27.347291 57.8858087 39.92237378 57.75 55.6875 C57.76160156 57.0168457 57.76160156 57.0168457 57.7734375 58.37304688 C57.72286211 75.7077612 51.55473538 90.84580526 39.8125 103.5625 C28.0824493 114.75012061 14.12794194 118.99269629 -1.7019043 118.85009766 C-12.70259131 118.49214272 -22.30732277 115.44114745 -31.5 109.375 C-32.62341797 108.63830078 -32.62341797 108.63830078 -33.76953125 107.88671875 C-45.3577547 99.6150567 -53.55933963 86.00818942 -56.12060547 72.06713867 C-57.89083262 59.5058164 -57.69398065 46.06552699 -52.5 34.375 C-52.09910156 33.44945312 -51.69820312 32.52390625 -51.28515625 31.5703125 C-44.53707194 17.76118924 -33.52301586 7.98742349 -19.24462891 2.50976562 C-12.77700836 0.33719982 -6.78829292 -0.08135105 0 0 Z " fill="#030303" transform="translate(626.5,1010.625)"/>
<path d="M0 0 C10.23 0 20.46 0 31 0 C31 15.84 31 31.68 31 48 C44.2 48 57.4 48 71 48 C71 57.24 71 66.48 71 76 C57.8 76 44.6 76 31 76 C31.06188817 92.03435149 31.06188817 92.03435149 31.16015625 108.06835938 C31.20834371 114.61645699 31.2524437 121.16438909 31.27099609 127.71264648 C31.28623839 132.99725824 31.32081726 138.28143439 31.36830902 143.56585121 C31.38304509 145.57302355 31.3910365 147.58025811 31.39188385 149.58748436 C31.12575501 168.03663026 31.12575501 168.03663026 38.375 184.625 C44.82916172 190.46447965 50.5594903 190.38719512 58.875 190.1875 C59.94492188 190.17396484 61.01484375 190.16042969 62.1171875 190.14648438 C64.74531511 190.11128624 67.37239194 190.06204693 70 190 C70.67590188 193.37321776 71.33905518 196.74882242 72 200.125 C72.19078125 201.07632812 72.3815625 202.02765625 72.578125 203.0078125 C73.49756891 207.73638116 74.2609763 212.15562735 74 217 C66.15355702 219.83484392 58.64956583 220.32720467 50.375 220.375 C49.41005615 220.38853516 48.4451123 220.40207031 47.45092773 220.41601562 C34.52143368 220.33668682 23.40081518 215.73570389 13.8515625 207.0234375 C10.5527495 203.41840558 8.27757023 199.29811058 6 195 C5.4225 193.948125 4.845 192.89625 4.25 191.8125 C0.14168198 182.56878445 -0.15443816 173.02729479 -0.11352539 163.07397461 C-0.11367142 162.12656403 -0.11381744 161.17915344 -0.1139679 160.20303345 C-0.11327681 157.10277944 -0.10552241 154.00258714 -0.09765625 150.90234375 C-0.09578921 148.74044325 -0.09436666 146.57854232 -0.09336853 144.41664124 C-0.08956588 138.74991673 -0.07975499 133.08321821 -0.06866455 127.41650391 C-0.05840184 121.62467805 -0.05386053 115.83284797 -0.04882812 110.04101562 C-0.03813055 98.69399722 -0.02055216 87.34700484 0 76 C-9.9 76 -19.8 76 -30 76 C-30 66.43 -30 56.86 -30 47 C-20.1 47 -10.2 47 0 47 C0 31.49 0 15.98 0 0 Z " fill="#FCFCFB" transform="translate(1674,937)"/>
<path d="M0 0 C10.23 0 20.46 0 31 0 C31 83.49 31 166.98 31 253 C20.77 253 10.54 253 0 253 C0 169.51 0 86.02 0 0 Z " fill="#FDFDFB" transform="translate(826,901)"/>
<path d="M0 0 C9.9 0 19.8 0 30 0 C30 55.77 30 111.54 30 169 C20.1 169 10.2 169 0 169 C0 113.23 0 57.46 0 0 Z " fill="#FEFEFD" transform="translate(754,985)"/>
<path d="M0 0 C9.45784446 7.81370971 15.56888097 18.30861495 18.39453125 30.1875 C18.39453125 31.1775 18.39453125 32.1675 18.39453125 33.1875 C-17.90546875 33.1875 -54.20546875 33.1875 -91.60546875 33.1875 C-89.70516949 19.88540519 -83.82138661 8.9840878 -73.29296875 0.3125 C-50.47869956 -15.92682356 -22.9333501 -15.95363485 0 0 Z " fill="#060606" transform="translate(1429.60546875,1021.8125)"/>
<path d="M0 0 C3.36630302 1.45385261 5.57107429 3.28191647 8 6 C8.78375 6.86625 9.5675 7.7325 10.375 8.625 C14.68395909 14.92270944 14.7214546 20.46079944 14 28 C12.34616695 33.90117702 9.08456964 37.57769351 4 41 C-1.4442789 43.85450564 -6.89450394 44.96065497 -13 44 C-19.78273047 41.73095707 -24.65893696 37.58617926 -28.3125 31.4375 C-30.76780503 26.11431819 -30.88121802 20.73564714 -30 15 C-24.95114728 1.64064634 -13.05817262 -1.91340833 0 0 Z " fill="#FBFBFA" transform="translate(777,909)"/>
<path d="M0 0 C1.796875 0.19140625 1.796875 0.19140625 4 1 C5.703125 3.21484375 5.703125 3.21484375 7.25 5.9375 C7.77078125 6.83339844 8.2915625 7.72929688 8.828125 8.65234375 C10 11 10 11 10 13 C8.35 13.33 6.7 13.66 5 14 C2.46690767 9.35796103 0.53484401 5.34844008 0 0 Z " fill="#131313" transform="translate(407,1107)"/>
</svg>
